<mxfile host="app.diagrams.net" agent="Mozilla/5.0 (Macintosh; Intel Mac OS X 10_15_7) AppleWebKit/537.36 (KHTML, like Gecko) Chrome/129.0.0.0 Safari/537.36" version="24.7.17">
  <diagram name="Folder Structure" id="-q-XlPQ6PVLSPzIcJxgi">
    <mxGraphModel dx="1140" dy="703" grid="1" gridSize="10" guides="1" tooltips="1" connect="1" arrows="1" fold="1" page="1" pageScale="1" pageWidth="850" pageHeight="1100" math="0" shadow="0">
      <root>
        <mxCell id="0" />
        <mxCell id="1" parent="0" />
        <mxCell id="nEzbJWzvZHk9MdzEqcwi-3" value="" style="edgeStyle=orthogonalEdgeStyle;rounded=0;orthogonalLoop=1;jettySize=auto;html=1;" edge="1" parent="1" source="nEzbJWzvZHk9MdzEqcwi-1" target="nEzbJWzvZHk9MdzEqcwi-2">
          <mxGeometry relative="1" as="geometry" />
        </mxCell>
        <mxCell id="nEzbJWzvZHk9MdzEqcwi-1" value="building an API&lt;div&gt;&lt;br&gt;&lt;/div&gt;" style="image;aspect=fixed;perimeter=ellipsePerimeter;html=1;align=center;shadow=0;dashed=0;spacingTop=3;image=img/lib/active_directory/folder.svg;" vertex="1" parent="1">
          <mxGeometry x="60" y="30" width="50" height="68.49" as="geometry" />
        </mxCell>
        <mxCell id="nEzbJWzvZHk9MdzEqcwi-5" value="" style="edgeStyle=orthogonalEdgeStyle;rounded=0;orthogonalLoop=1;jettySize=auto;html=1;" edge="1" parent="1" source="nEzbJWzvZHk9MdzEqcwi-2" target="nEzbJWzvZHk9MdzEqcwi-4">
          <mxGeometry relative="1" as="geometry" />
        </mxCell>
        <mxCell id="nEzbJWzvZHk9MdzEqcwi-2" value="&lt;div&gt;bin&lt;/div&gt;&lt;div&gt;&lt;br&gt;&lt;/div&gt;" style="image;aspect=fixed;perimeter=ellipsePerimeter;html=1;align=center;shadow=0;dashed=0;spacingTop=3;image=img/lib/active_directory/folder.svg;" vertex="1" parent="1">
          <mxGeometry x="100" y="130" width="50" height="68.49" as="geometry" />
        </mxCell>
        <mxCell id="nEzbJWzvZHk9MdzEqcwi-7" value="" style="edgeStyle=orthogonalEdgeStyle;rounded=0;orthogonalLoop=1;jettySize=auto;html=1;" edge="1" parent="1" source="nEzbJWzvZHk9MdzEqcwi-4" target="nEzbJWzvZHk9MdzEqcwi-6">
          <mxGeometry relative="1" as="geometry" />
        </mxCell>
        <mxCell id="nEzbJWzvZHk9MdzEqcwi-12" value="" style="edgeStyle=orthogonalEdgeStyle;rounded=0;orthogonalLoop=1;jettySize=auto;html=1;" edge="1" parent="1" source="nEzbJWzvZHk9MdzEqcwi-4" target="nEzbJWzvZHk9MdzEqcwi-6">
          <mxGeometry relative="1" as="geometry" />
        </mxCell>
        <mxCell id="nEzbJWzvZHk9MdzEqcwi-26" value="" style="edgeStyle=orthogonalEdgeStyle;rounded=0;orthogonalLoop=1;jettySize=auto;html=1;" edge="1" parent="1" source="nEzbJWzvZHk9MdzEqcwi-4" target="nEzbJWzvZHk9MdzEqcwi-25">
          <mxGeometry relative="1" as="geometry" />
        </mxCell>
        <mxCell id="nEzbJWzvZHk9MdzEqcwi-27" value="" style="edgeStyle=orthogonalEdgeStyle;rounded=0;orthogonalLoop=1;jettySize=auto;html=1;" edge="1" parent="1" source="nEzbJWzvZHk9MdzEqcwi-4" target="nEzbJWzvZHk9MdzEqcwi-25">
          <mxGeometry relative="1" as="geometry" />
        </mxCell>
        <mxCell id="nEzbJWzvZHk9MdzEqcwi-32" value="" style="edgeStyle=orthogonalEdgeStyle;rounded=0;orthogonalLoop=1;jettySize=auto;html=1;" edge="1" parent="1" source="nEzbJWzvZHk9MdzEqcwi-4" target="nEzbJWzvZHk9MdzEqcwi-25">
          <mxGeometry relative="1" as="geometry" />
        </mxCell>
        <mxCell id="nEzbJWzvZHk9MdzEqcwi-4" value="&lt;div&gt;cmd&lt;/div&gt;&lt;div&gt;&lt;br&gt;&lt;/div&gt;&lt;div&gt;&lt;br&gt;&lt;/div&gt;" style="image;aspect=fixed;perimeter=ellipsePerimeter;html=1;align=center;shadow=0;dashed=0;spacingTop=3;image=img/lib/active_directory/folder.svg;" vertex="1" parent="1">
          <mxGeometry x="100" y="230" width="50" height="68.49" as="geometry" />
        </mxCell>
        <mxCell id="nEzbJWzvZHk9MdzEqcwi-9" value="" style="edgeStyle=orthogonalEdgeStyle;rounded=0;orthogonalLoop=1;jettySize=auto;html=1;" edge="1" parent="1" source="nEzbJWzvZHk9MdzEqcwi-6" target="nEzbJWzvZHk9MdzEqcwi-8">
          <mxGeometry relative="1" as="geometry" />
        </mxCell>
        <mxCell id="nEzbJWzvZHk9MdzEqcwi-13" value="" style="edgeStyle=orthogonalEdgeStyle;rounded=0;orthogonalLoop=1;jettySize=auto;html=1;" edge="1" parent="1" source="nEzbJWzvZHk9MdzEqcwi-6" target="nEzbJWzvZHk9MdzEqcwi-8">
          <mxGeometry relative="1" as="geometry" />
        </mxCell>
        <mxCell id="nEzbJWzvZHk9MdzEqcwi-14" value="" style="edgeStyle=orthogonalEdgeStyle;rounded=0;orthogonalLoop=1;jettySize=auto;html=1;" edge="1" parent="1" source="nEzbJWzvZHk9MdzEqcwi-6" target="nEzbJWzvZHk9MdzEqcwi-8">
          <mxGeometry relative="1" as="geometry" />
        </mxCell>
        <mxCell id="nEzbJWzvZHk9MdzEqcwi-6" value="&lt;div&gt;internal&lt;/div&gt;" style="image;aspect=fixed;perimeter=ellipsePerimeter;html=1;align=center;shadow=0;dashed=0;spacingTop=3;image=img/lib/active_directory/folder.svg;" vertex="1" parent="1">
          <mxGeometry x="100" y="388.49" width="50" height="68.49" as="geometry" />
        </mxCell>
        <mxCell id="nEzbJWzvZHk9MdzEqcwi-11" value="" style="edgeStyle=orthogonalEdgeStyle;rounded=0;orthogonalLoop=1;jettySize=auto;html=1;" edge="1" parent="1" source="nEzbJWzvZHk9MdzEqcwi-8" target="nEzbJWzvZHk9MdzEqcwi-10">
          <mxGeometry relative="1" as="geometry" />
        </mxCell>
        <mxCell id="nEzbJWzvZHk9MdzEqcwi-15" value="" style="edgeStyle=orthogonalEdgeStyle;rounded=0;orthogonalLoop=1;jettySize=auto;html=1;" edge="1" parent="1" source="nEzbJWzvZHk9MdzEqcwi-8" target="nEzbJWzvZHk9MdzEqcwi-6">
          <mxGeometry relative="1" as="geometry" />
        </mxCell>
        <mxCell id="nEzbJWzvZHk9MdzEqcwi-17" value="" style="edgeStyle=orthogonalEdgeStyle;rounded=0;orthogonalLoop=1;jettySize=auto;html=1;" edge="1" parent="1" source="nEzbJWzvZHk9MdzEqcwi-8" target="nEzbJWzvZHk9MdzEqcwi-10">
          <mxGeometry relative="1" as="geometry" />
        </mxCell>
        <mxCell id="nEzbJWzvZHk9MdzEqcwi-8" value="&lt;div&gt;docs&lt;/div&gt;&lt;div&gt;&lt;br&gt;&lt;/div&gt;" style="image;aspect=fixed;perimeter=ellipsePerimeter;html=1;align=center;shadow=0;dashed=0;spacingTop=3;image=img/lib/active_directory/folder.svg;" vertex="1" parent="1">
          <mxGeometry x="100" y="482" width="50" height="68.49" as="geometry" />
        </mxCell>
        <mxCell id="nEzbJWzvZHk9MdzEqcwi-10" value="&lt;div&gt;web&lt;/div&gt;&lt;div&gt;&lt;br&gt;&lt;/div&gt;" style="image;aspect=fixed;perimeter=ellipsePerimeter;html=1;align=center;shadow=0;dashed=0;spacingTop=3;image=img/lib/active_directory/folder.svg;" vertex="1" parent="1">
          <mxGeometry x="100" y="580" width="50" height="68.49" as="geometry" />
        </mxCell>
        <mxCell id="nEzbJWzvZHk9MdzEqcwi-24" value="Completed code goes here" style="text;html=1;align=center;verticalAlign=middle;whiteSpace=wrap;rounded=0;" vertex="1" parent="1">
          <mxGeometry x="200" y="160" width="150" height="30" as="geometry" />
        </mxCell>
        <mxCell id="nEzbJWzvZHk9MdzEqcwi-25" value="api" style="image;aspect=fixed;perimeter=ellipsePerimeter;html=1;align=center;shadow=0;dashed=0;spacingTop=3;image=img/lib/active_directory/folder.svg;" vertex="1" parent="1">
          <mxGeometry x="210" y="230" width="50" height="68.49" as="geometry" />
        </mxCell>
        <mxCell id="nEzbJWzvZHk9MdzEqcwi-33" value="migrations" style="image;aspect=fixed;perimeter=ellipsePerimeter;html=1;align=center;shadow=0;dashed=0;spacingTop=3;image=img/lib/active_directory/folder.svg;" vertex="1" parent="1">
          <mxGeometry x="210" y="320" width="50" height="68.49" as="geometry" />
        </mxCell>
        <mxCell id="nEzbJWzvZHk9MdzEqcwi-35" style="edgeStyle=orthogonalEdgeStyle;rounded=0;orthogonalLoop=1;jettySize=auto;html=1;entryX=0.008;entryY=0.426;entryDx=0;entryDy=0;entryPerimeter=0;" edge="1" parent="1" source="nEzbJWzvZHk9MdzEqcwi-4" target="nEzbJWzvZHk9MdzEqcwi-33">
          <mxGeometry relative="1" as="geometry" />
        </mxCell>
        <mxCell id="nEzbJWzvZHk9MdzEqcwi-41" style="edgeStyle=orthogonalEdgeStyle;rounded=0;orthogonalLoop=1;jettySize=auto;html=1;entryX=1;entryY=0.5;entryDx=0;entryDy=0;" edge="1" parent="1" source="nEzbJWzvZHk9MdzEqcwi-36" target="nEzbJWzvZHk9MdzEqcwi-25">
          <mxGeometry relative="1" as="geometry" />
        </mxCell>
        <mxCell id="nEzbJWzvZHk9MdzEqcwi-36" value="server related code goes here" style="text;html=1;align=center;verticalAlign=middle;whiteSpace=wrap;rounded=0;" vertex="1" parent="1">
          <mxGeometry x="300" y="249.25" width="170" height="30" as="geometry" />
        </mxCell>
        <mxCell id="nEzbJWzvZHk9MdzEqcwi-40" style="edgeStyle=orthogonalEdgeStyle;rounded=0;orthogonalLoop=1;jettySize=auto;html=1;entryX=1;entryY=0.5;entryDx=0;entryDy=0;" edge="1" parent="1" source="nEzbJWzvZHk9MdzEqcwi-37" target="nEzbJWzvZHk9MdzEqcwi-33">
          <mxGeometry relative="1" as="geometry" />
        </mxCell>
        <mxCell id="nEzbJWzvZHk9MdzEqcwi-37" value="migrations" style="text;html=1;align=center;verticalAlign=middle;whiteSpace=wrap;rounded=0;" vertex="1" parent="1">
          <mxGeometry x="300" y="340" width="70" height="29.25" as="geometry" />
        </mxCell>
        <mxCell id="nEzbJWzvZHk9MdzEqcwi-39" style="edgeStyle=orthogonalEdgeStyle;rounded=0;orthogonalLoop=1;jettySize=auto;html=1;entryX=1;entryY=0.5;entryDx=0;entryDy=0;" edge="1" parent="1" source="nEzbJWzvZHk9MdzEqcwi-38" target="nEzbJWzvZHk9MdzEqcwi-6">
          <mxGeometry relative="1" as="geometry" />
        </mxCell>
        <mxCell id="nEzbJWzvZHk9MdzEqcwi-38" value="non exportable code to the api/ storage layer" style="text;html=1;align=center;verticalAlign=middle;whiteSpace=wrap;rounded=0;" vertex="1" parent="1">
          <mxGeometry x="210" y="408.87" width="160" height="27.74" as="geometry" />
        </mxCell>
        <mxCell id="nEzbJWzvZHk9MdzEqcwi-42" style="edgeStyle=orthogonalEdgeStyle;rounded=0;orthogonalLoop=1;jettySize=auto;html=1;entryX=0.938;entryY=0.658;entryDx=0;entryDy=0;entryPerimeter=0;" edge="1" parent="1" source="nEzbJWzvZHk9MdzEqcwi-24" target="nEzbJWzvZHk9MdzEqcwi-2">
          <mxGeometry relative="1" as="geometry" />
        </mxCell>
        <mxCell id="nEzbJWzvZHk9MdzEqcwi-44" style="edgeStyle=orthogonalEdgeStyle;rounded=0;orthogonalLoop=1;jettySize=auto;html=1;entryX=1;entryY=0.5;entryDx=0;entryDy=0;" edge="1" parent="1" source="nEzbJWzvZHk9MdzEqcwi-43" target="nEzbJWzvZHk9MdzEqcwi-10">
          <mxGeometry relative="1" as="geometry" />
        </mxCell>
        <mxCell id="nEzbJWzvZHk9MdzEqcwi-43" value="front end" style="text;html=1;align=center;verticalAlign=middle;whiteSpace=wrap;rounded=0;" vertex="1" parent="1">
          <mxGeometry x="180" y="600.37" width="70" height="27.74" as="geometry" />
        </mxCell>
      </root>
    </mxGraphModel>
  </diagram>
</mxfile>
